# xmcd
#
# Track frame offsets: 
#        187
#        11592
#        25255
#        38677
#        49820
#        63682
#        77515
#        90547
#        104915
#        117587
#        131492
#        142785
#        155975
#        168272
#        179017
#        189355
#        201577
#        218420
#        230490
#        239182
#        249522
#        261892
#        274445
#        286307
#        297042
#        309085
#        319090
#
# Disc length: 4323 seconds
#
# Revision: 2
# Processed by: cddbd v1.5.2PL0 Copyright (c) Steve Scherf et al.
# Submitted via: ExactAudioCopy v1.0b1
#
DISCID=9510e11b
DTITLE=The Supremes - The Never Before Releaseed Masters
DYEAR=1987
DGENRE=R&B
TTITLE0=Sweet Thing
TTITLE1=It's Going All The Way (To True True Love)
TTITLE2=Little Breeze
TTITLE3=Am I Asking To Much
TTITLE4=Stormy
TTITLE5=Slow Down
TTITLE6=Don't Let True Love Die
TTITLE7=Too Much A Little Too Soon
TTITLE8=Too Hurt To Cry, Too In Love To Say Goodbye
TTITLE9=Can I Get A Witness
TTITLE10=Come Into My Palace
TTITLE11=I'm The Exception To The Rule
TTITLE12=Our Day Will Come
TTITLE13=Save Me A Star
TTITLE14=Mr. Blues
TTITLE15=Littel Miss Loser
TTITLE16=Fancy Passes
TTITLE17=The Ballad Of Davy Crockett
TTITLE18=Supercalifragilisticexpialidocius
TTITLE19=Whistle While You Work
TTITLE20=I've Got No Strings
TTITLE21=A Dream Is A Wish Your Heart Makes
TTITLE22=The Land Of Make Believe
TTITLE23=Toy Land
TTITLE24=Won't Be Long Before Christmas
TTITLE25=The Christmas Song
TTITLE26=Silent Night
EXTD=
EXTT0=
EXTT1=
EXTT2=
EXTT3=
EXTT4=
EXTT5=
EXTT6=
EXTT7=
EXTT8=
EXTT9=
EXTT10=
EXTT11=
EXTT12=
EXTT13=
EXTT14=
EXTT15=
EXTT16=
EXTT17=
EXTT18=
EXTT19=
EXTT20=
EXTT21=
EXTT22=
EXTT23=
EXTT24=
EXTT25=
EXTT26=
PLAYORDER=
